<?xml version="1.0" encoding="UTF-8" standalone="no"?>
<!-- Created with Inkscape (http://www.inkscape.org/) -->

<svg
   version="1.1"
   id="svg1"
   width="1024"
   height="512"
   viewBox="0 0 1024 512"
   sodipodi:docname="logo11"
   inkscape:export-filename="TheFoodIt-logo (Copy).png"
   inkscape:export-xdpi="96"
   inkscape:export-ydpi="96"
   inkscape:version="1.3.1 (9b9bdc1480, 2023-11-25, custom)"
   xmlns:inkscape="http://www.inkscape.org/namespaces/inkscape"
   xmlns:sodipodi="http://sodipodi.sourceforge.net/DTD/sodipodi-0.dtd"
   xmlns="http://www.w3.org/2000/svg"
   xmlns:svg="http://www.w3.org/2000/svg">
  <defs
     id="defs1" />
  <sodipodi:namedview
     id="namedview1"
     pagecolor="#ffffff"
     bordercolor="#000000"
     borderopacity="0.25"
     inkscape:showpageshadow="2"
     inkscape:pageopacity="0.0"
     inkscape:pagecheckerboard="0"
     inkscape:deskcolor="#d1d1d1"
     inkscape:export-bgcolor="#ffffff00"
     inkscape:zoom="1.3078295"
     inkscape:cx="511.53458"
     inkscape:cy="222.88838"
     inkscape:window-width="2560"
     inkscape:window-height="1312"
     inkscape:window-x="1920"
     inkscape:window-y="32"
     inkscape:window-maximized="1"
     inkscape:current-layer="g1" />
  <g
     inkscape:groupmode="layer"
     inkscape:label="Image"
     id="g1">
    <g
       id="g13"
       transform="matrix(0.67124209,0,0,0.67124209,33.978375,88.885692)">
      <path
         style="fill:#367d21"
         d="m 1215.4509,337.90971 c 0,-82.66667 0,-82.66667 24.6667,-82.66667 24.6667,0 24.6667,0 24.6667,82.66667 0,82.66667 0,82.66667 -24.6667,82.66667 -24.6667,0 -24.6667,0 -24.6667,-82.66667 z m 108.7731,79.92261 c -20.1311,-7.64166 -23.8303,-16.30247 -24.7402,-57.92261 -0.6995,-32 -0.6995,-32 -8.3662,-32.39987 -7.6667,-0.39987 -7.6667,-0.39987 -7.6667,-11.55762 0,-15.23479 0.085,-15.37584 9.2694,-15.37584 9.3564,0 9.1462,0.20742 22.6022,-22.30252 15.805,-26.43953 30.7951,-26.60142 30.7951,-0.33258 0,23.11853 -0.3279,22.6351 15.3548,22.6351 14.7356,0 14.3659,-0.43187 13.71,16.0157 -0.3981,9.9843 -0.3981,9.9843 -12.9926,10.37112 -16.9204,0.51969 -16.0971,-0.76002 -15.9393,24.77643 0.1872,30.28891 2.7581,35.08497 18.1454,33.85038 8.3441,-0.66949 8.1083,-1.08266 9.2404,16.19186 0.9504,14.50187 1.8598,13.11618 -11.3843,17.34675 -7.4369,2.37555 -30.4187,1.59215 -38.028,-1.2963 z M 1220.3517,229.70626 c -11.4273,-25.32052 -10.8751,-49.03353 1.46,-62.68693 7.1841,-7.95203 16.6101,-13.94069 35.7973,-22.74338 8.9172,-4.09104 15.0881,10.75546 16.1182,38.77865 0.8563,23.29415 -5.8053,32.93058 -32.4559,46.9496 -9.2921,4.8879 -8.8912,4.97814 -7.8247,-1.76116 2.5375,-16.0362 8.7424,-33.48833 14.9009,-41.91104 3.3161,-4.53523 3.9374,-7.74952 1.7582,-9.09633 -3.9861,-2.46351 -10.5459,5.54946 -15.2876,18.67404 -1.3247,3.66667 -2.8614,7.26667 -3.4149,8 -0.5535,0.73333 -2.0113,6.2958 -3.2394,12.36104 -3.2355,15.9781 -5.1661,19.29843 -7.8121,13.43551 z"
         id="path14" />
      <path
         style="fill:#010101"
         d="m 508.11756,419.02811 c -39.50418,-5.43018 -62.01747,-28.0323 -61.99257,-62.23719 0.049,-67.26638 101.9882,-88.02744 118.99759,-24.23519 5.5459,20.79941 3.93128,26.23066 -8.07991,27.17916 -4.90881,0.38765 -14.02511,1.36818 -20.25844,2.17896 -45.7981,5.95706 -41.33334,4.9342 -41.33334,9.46924 0,13.86396 29.97626,21.75214 55.84264,14.69486 7.02127,-1.91566 7.00554,-1.92837 8.47723,6.85105 2.76004,16.46518 2.77373,18.24361 0.14698,19.09223 -1.35677,0.43832 -3.66685,1.27416 -5.13351,1.85741 -12.41897,4.93864 -32.26712,7.1288 -46.66667,5.14947 z m -6.35247,-71.92023 c 7.7823,-1.82593 15.56826,-3.63308 23.38231,-5.31883 9.25605,-1.98783 11.01277,-5.35548 6.84496,-13.12181 -9.86022,-18.37359 -41.8748,-7.35186 -41.8748,14.41632 0,6.03246 1.18682,6.44252 11.64753,4.02432 z m 270.08189,69.3117 C 698.20482,386.995 716.09589,294.83381 795.45091,294.83009 c 84.78825,-0.004 97.01923,113.34081 13.33333,123.56032 -3.78738,0.46251 -25.05517,2.77679 -36.93726,-1.97083 z m 37.89003,-33.1332 c 17.12483,-10.44151 16.45615,-45.04083 -1.04538,-54.09123 -26.63808,-13.77508 -50.75701,21.4213 -32.78765,47.84651 6.11809,8.99708 23.9277,12.28429 33.83303,6.24472 z m 133.7139,35.76302 c -35.9254,-6.33176 -56.57123,-26.59178 -59.50051,-58.38861 -6.70551,-72.78729 111.92673,-93.04266 136.6338,-23.32898 12.8739,36.32507 -13.8906,76.66995 -53.79995,81.09816 -3.66667,0.40684 -8.76667,1.00346 -11.33334,1.32581 -2.56666,0.32235 -7.96666,0.004 -12,-0.70638 z m 24.45574,-36.03598 c 8.79791,-5.76717 13.89645,-18.30406 12.44115,-30.59177 -4.40097,-37.15933 -52.85808,-33.35052 -52.85808,4.15473 0,23.12744 22.75733,38.01319 40.41693,26.43704 z m 121.54685,35.92984 c -57.7212,-1.41999 -61.6494,-102.22375 -4.7565,-120.90071 41.7964,-13.72111 60.0873,37.03928 60.0873,-9.26951 0,-31.35221 0.1386,-32.1967 5.287,-32.1967 2.0177,0 11.9168,-1.23989 21.9982,-2.7553 10.0813,-1.51541 19.1709,-2.43248 20.1991,-2.03794 1.5809,0.60665 1.8163,13.42978 1.5258,83.08863 -0.3435,82.37127 -0.3435,82.37127 -23.6768,82.37127 -23.3333,0 -23.3333,0 -24,-10 -0.8502,-12.75233 -3.7443,-14.10653 -10.3851,-4.85933 -11.0578,16.14985 -28.8382,16.91183 -46.279,16.55959 z m 44.6296,-39.01181 c 18.1017,-11.42706 14.0056,-42.12289 -6.4524,-48.35507 -30.2388,-9.21171 -51.6961,26.5616 -28.0647,46.78916 8.4142,7.20225 24.4371,7.92914 34.5171,1.56591 z m -967.07667,37.08937 c -0.48889,-0.48889 -0.88889,-30.15348 -0.88889,-65.92131 0,-50.56175 -0.37086,-65.27245 -1.66667,-66.11111 -0.91666,-0.59328 -9.76666,-1.37869 -19.66666,-1.74536 -18,-0.66666 -18,-0.66666 -18,-24.22268 0,-23.58811 0.46457,-26.67205 3.63444,-24.12622 14.47759,11.62739 130.42385,20.89316 176.36557,1.07077 20.85558,-8.99849 21.02266,-8.96784 20.4943,3.75901 -0.21735,5.23552 -0.26749,25.56912 -0.11141,45.18579 0.32,40.22029 0.84227,41.90527 9.08108,29.29785 12.68235,-19.40718 43.73126,-24.95495 62.79963,-11.22093 24.96059,18.6609 22.43225,45.75303 22.84698,73.63518 0.54923,41.35076 0.54923,41.35076 -23.28067,40.986 -23.82991,-0.36477 -23.82991,-0.36477 -24.49658,-37.76086 -0.73677,-41.32856 -0.85715,-41.91357 -9.73911,-47.32925 -8.60208,-5.24501 -25.8181,-1.6465 -31.32963,6.54857 -5.4006,8.03013 -5.60651,9.56196 -5.9385,44.17677 -0.32609,34 -0.32609,34 -24.32609,34 -24.00001,0 -24.00001,0 -24.34615,-65.21215 -0.41329,-77.86232 3.70309,-68.7782 -30.73446,-67.82553 -33.59143,0.92926 -29.5414,-8.48214 -29.56565,68.70435 -0.0204,65 -0.0204,65 -25.13153,65 -13.81111,0 -25.51111,-0.4 -26,-0.88889 z m 426.40211,-0.74689 c -0.35697,-0.93366 -0.49348,-38.89755 -0.30334,-84.36422 0.3457,-82.66667 0.3457,-82.66667 57.01237,-82.66667 56.66667,0 56.66667,0 56.66667,16 0,16 0,16 -32.00001,16.66667 -32,0.66667 -32,0.66667 -32,20 0,19.33333 0,19.33333 30,20 30,0.66667 30,0.66667 30,14.66667 0,14 0,14 -30.31009,14.3583 -30.3101,0.35831 -30.3101,0.35831 -30.66667,33.33334 -0.35657,32.97502 -0.35657,32.97502 -24.05323,33.33924 -18.22782,0.28017 -23.84645,-0.0276 -24.3457,-1.33333 z M 130.94707,211.31724 c -6.16286,-2.80751 -6.16286,-2.80751 -6.16286,-25.99878 0,-23.19126 0,-23.19126 -4.53782,-25.99579 C 108.34548,151.96751 102.31915,143.54843 96.314788,123.3561 84.472343,83.530609 117.21106,33.874698 160.11754,47.171666 c 11.01463,3.413496 13.57162,3.295071 18.96277,-0.878251 6.66261,-5.157563 20.49587,-11.531796 28.37057,-13.072885 10.38949,-2.033239 27.05451,-0.410912 35.65213,3.470709 5.85559,1.963842 10.88888,5.118481 16.03052,8.503093 8.58291,5.685582 9.22214,5.888567 14.31735,4.546426 75.28469,-19.830901 108.46253,53.170992 54.74789,107.411652 -12.52306,12.6457 -5.79068,9.47752 -5.79068,29.6674 0,22.51023 1.50688,21.03209 -30.29054,31.37067 -28.622,9.30612 -105.20768,18.62075 -161.17048,-6.87324 z"
         id="path13"
         sodipodi:nodetypes="sssssssssssssssssssssssscsssscsssscssssssssscsssssssssssssssssssssssssssssssssssssssssssssssssssss" />
    </g>
  </g>
</svg>
